<svg width="260" height="73" viewBox="0 0 260 73" fill="none" xmlns="http://www.w3.org/2000/svg">
<g style="mix-blend-mode:screen" filter="url(#filter0_i_11_26)">
<path d="M3.38592 63.1695C3.53814 62.7065 3.96094 61.481 4.65432 59.493C5.35048 57.5369 6.25146 54.9846 7.35727 51.8363C8.49217 48.6533 9.7516 45.0578 11.1356 41.0499C12.5486 37.0074 14.0378 32.7334 15.603 28.2278C15.6791 27.9963 15.7497 27.701 15.8146 27.342C15.9087 26.9483 15.9404 26.5761 15.9097 26.2254C15.879 25.8748 15.7423 25.5976 15.4997 25.394C15.2861 25.1557 14.8446 25.0659 14.1751 25.1244C12.8362 25.2416 11.7609 25.8014 10.9492 26.804C10.1666 27.7719 9.61072 28.9448 9.28156 30.3227C8.98429 31.6978 8.89282 33.0389 9.00717 34.3459C9.03506 34.6647 9.05876 34.9357 9.07829 35.1588C9.12969 35.3792 9.18109 35.5995 9.23249 35.8199C8.6268 35.8729 8.11456 35.7089 7.69577 35.328C7.30606 34.9124 6.98908 34.4101 6.74482 33.8211C6.52965 33.1975 6.39975 32.6307 6.35513 32.1206C6.26309 31.0686 6.46214 30.0394 6.95228 29.0328C7.44242 28.0263 8.10031 27.1014 8.92597 26.2582C9.7835 25.4123 10.7361 24.7347 11.7837 24.2254C12.8604 23.6815 13.9247 23.3636 14.9767 23.2715C16.0287 23.1795 16.9318 23.4056 17.6861 23.95C18.4695 24.4596 19.1035 25.4642 19.588 26.9637C20.1044 28.4603 20.4895 30.6592 20.7433 33.5601C20.9163 35.5365 21.0206 37.6475 21.0565 39.8929C21.1242 42.1355 21.1732 44.3477 21.2034 46.5293C21.2337 48.711 21.295 50.6972 21.3875 52.488C21.7274 50.4988 22.2634 48.3639 22.9954 46.0834C23.7593 43.8002 24.6043 41.5259 25.5304 39.2605C26.4856 36.9605 27.4373 34.8054 28.3857 32.7951C29.3341 30.7848 30.1933 29.0392 30.9632 27.5585C31.733 26.0778 32.2973 25.0005 32.6559 24.3267C33.0464 23.6501 33.3871 23.1384 33.678 22.7918C33.9661 22.4132 34.3652 22.2016 34.8753 22.157C35.3216 22.118 35.8414 22.1849 36.4347 22.3578C36.2618 22.9512 36.0183 23.8398 35.7043 25.0237C35.4193 26.1729 35.1408 27.5785 34.8686 29.2405C34.5287 31.2297 34.2125 33.4899 33.92 36.021C33.6247 38.5203 33.3654 41.0645 33.1422 43.6538C32.9509 46.2404 32.8268 48.6764 32.7698 50.9621C32.71 53.2159 32.747 55.1079 32.8809 56.638C32.9423 57.3394 33.0215 57.8785 33.1188 58.2555C33.216 58.6324 33.325 58.9602 33.4457 59.2387C33.6011 59.5463 33.7663 59.9655 33.9412 60.4963C32.8573 60.5911 32.0132 60.4883 31.4087 60.1878C30.8042 59.8874 30.3715 59.3471 30.1105 58.5668C29.8523 57.8185 29.666 56.7908 29.5516 55.4838C29.2197 51.6903 29.3423 47.584 29.9194 43.1649C30.5255 38.7111 31.2452 34.0868 32.0785 29.2919C31.2572 30.5523 30.416 32.1356 29.5549 34.0419C28.7228 35.9136 27.8888 37.946 27.0528 40.1392C26.2458 42.2977 25.4721 44.4694 24.7317 46.6543C24.0204 48.8045 23.3922 50.8028 22.8471 52.6494C22.3019 54.4959 21.8897 56.0256 21.6104 57.2386C21.4247 57.3191 21.3013 57.3781 21.2404 57.4155C21.1794 57.453 21.0692 57.4787 20.9098 57.4926C20.0491 57.5679 19.4307 57.1081 19.0545 56.1131C18.7103 55.1153 18.4572 53.6919 18.2955 51.843C18.1811 50.536 18.0777 48.9871 17.9853 47.1963C17.922 45.3709 17.8545 43.4977 17.7828 41.5766C17.7111 39.6555 17.6304 37.8156 17.5407 36.0567C17.4802 34.2631 17.3941 32.7288 17.2826 31.4537C17.2268 30.8161 17.1648 30.2915 17.0967 29.8799C17.0605 29.4655 17.0124 29.1003 16.9527 28.7843C14.9212 34.9367 13.2288 40.1922 11.8755 44.5508C10.5194 48.8774 9.36599 52.3994 8.41519 55.1166C7.49628 57.831 6.64351 59.8329 5.8569 61.1224C5.07029 62.4119 4.24663 63.0942 3.38592 63.1695ZM50.4871 59.0487C48.2238 59.2467 46.3406 58.8333 44.8375 57.8084C43.3691 56.8126 42.2381 55.45 41.4443 53.7206C40.6825 51.9884 40.2165 50.15 40.0463 48.2054C39.826 45.6871 39.9868 43.1193 40.5288 40.5021C41.0707 37.8849 41.8948 35.3715 43.001 32.9619C44.1363 30.5177 45.4706 28.329 47.004 26.396C48.5346 24.4312 50.1797 22.8578 51.9394 21.6759C53.7282 20.4594 55.5311 19.7716 57.3482 19.6127C58.6552 19.4983 59.735 19.7251 60.5878 20.2929C61.4696 20.8261 61.976 21.8418 62.1071 23.3401C62.188 24.2646 62.1207 25.3305 61.9051 26.5379C61.6867 27.7134 61.3539 28.8668 60.9068 29.998C60.4569 31.0974 59.928 32.0271 59.3199 32.787C58.7437 33.5441 58.1208 33.9519 57.4514 34.0105C57.1964 34.0328 56.9184 33.9768 56.6176 33.8425C56.3486 33.7054 56.1004 33.438 55.8728 33.0404C56.3036 32.4566 56.771 31.7411 57.2751 30.894C57.8083 30.0121 58.3068 29.1012 58.7706 28.1612C59.2317 27.1893 59.5839 26.2591 59.8274 25.3705C60.1 24.4472 60.207 23.6509 60.1484 22.9814C60.0926 22.3439 59.8567 21.8506 59.4407 21.5015C59.0538 21.1177 58.4459 20.9621 57.6171 21.0346C56.2463 21.1546 54.8606 21.8379 53.46 23.0848C52.0912 24.3288 50.7877 25.9526 49.5497 27.9561C48.3407 29.925 47.2787 32.1058 46.3638 34.4987C45.4488 36.8915 44.7612 39.3127 44.301 41.7621C43.8726 44.2087 43.7532 46.5159 43.9428 48.6836C44.0795 50.2457 44.4337 51.7244 45.0055 53.1199C45.5745 54.4835 46.3908 55.5524 47.4543 56.3267C48.5525 57.13 49.8986 57.462 51.4925 57.3225C53.182 57.1747 54.8138 56.5501 56.3878 55.4487C57.9937 54.3446 59.4296 52.9501 60.6956 51.2654C61.9616 49.5806 62.9295 47.7935 63.5994 45.9039L64.3107 46.3235C63.44 48.4876 62.3322 50.5119 60.9873 52.3963C59.6396 54.2488 58.0859 55.7659 56.3262 56.9478C54.5693 58.1616 52.623 58.8619 50.4871 59.0487ZM66.7129 54.9791C65.3422 55.099 64.3322 54.7537 63.6831 53.9432C63.0368 53.1646 62.6606 52.1696 62.5547 50.9582C62.4682 49.97 62.5383 48.9359 62.7651 47.856C62.9918 46.7762 63.3198 45.7517 63.749 44.7826C64.21 43.8107 64.7342 43.01 65.3216 42.3804C65.9408 41.748 66.5852 41.4025 67.2546 41.344C67.414 41.33 67.5762 41.348 67.7411 41.3978C67.9352 41.4129 68.1147 41.4454 68.2797 41.4952C68.0151 41.7753 67.7063 42.2842 67.3532 43.0218C67.0292 43.7247 66.731 44.5378 66.4584 45.461C66.183 46.3524 65.9555 47.2396 65.7758 48.1226C65.6279 49.0029 65.5805 49.7458 65.6335 50.3515C65.7172 51.3079 65.9379 51.9953 66.2957 52.4137C66.6508 52.8002 67.0833 52.9711 67.5934 52.9265C68.2628 52.8679 69.0291 52.4476 69.8922 51.6654C70.7525 50.8513 71.5802 49.8473 72.3752 48.6535C71.4184 47.9984 70.6334 47.1034 70.0202 45.9685C69.436 44.799 69.0896 43.5926 68.9808 42.3493C68.8888 41.2974 68.9776 40.2938 69.2474 39.3386C69.5491 38.3807 70.0269 37.6001 70.6808 36.9968C71.3319 36.3616 72.1516 36.0008 73.1398 35.9144C74.4468 35.8 75.3541 36.074 75.8618 36.7363C76.3694 37.3985 76.6693 38.2557 76.7613 39.3077C76.8701 40.5509 76.6886 41.9641 76.2167 43.5472C75.7421 45.0985 75.104 46.6159 74.3022 48.0994C74.9039 48.368 75.5235 48.4744 76.1611 48.4186C76.6711 48.374 77.2366 48.2282 77.8574 47.9811C78.4755 47.7022 79.065 47.2812 79.6261 46.7182C80.219 46.1523 80.6691 45.4223 80.9763 44.5282L81.592 44.9561C81.0855 46.5102 80.2704 47.6576 79.1467 48.3983C78.0521 49.1044 76.9788 49.5035 75.9268 49.5955C75.5124 49.6318 75.1111 49.6348 74.723 49.6045C74.3321 49.5423 73.9543 49.4469 73.5897 49.3182C72.6314 50.8475 71.5405 52.1475 70.3172 53.2182C69.1257 54.2861 67.9243 54.8731 66.7129 54.9791ZM73.1271 47.3349C73.8209 46.0857 74.367 44.8012 74.7655 43.4815C75.1931 42.1271 75.3567 40.876 75.2563 39.7284C75.1754 38.804 74.9734 38.1471 74.6502 37.7578C74.3561 37.3338 74.0019 37.1399 73.5875 37.1762C72.9499 37.2319 72.3368 37.7513 71.7483 38.7344C71.1597 39.7174 70.9268 40.9103 71.0495 42.3129C71.1304 43.2374 71.3402 44.1666 71.6789 45.1007C72.0466 46 72.5294 46.7448 73.1271 47.3349ZM86.0949 54.4398C84.5648 54.5736 83.245 54.1751 82.1357 53.2443C81.0263 52.3134 80.3824 50.8279 80.2039 48.7877C80.0644 47.1938 80.232 45.6212 80.7066 44.0699C81.2103 42.484 81.9192 41.0407 82.8334 39.7401C83.7475 38.4395 84.7955 37.3841 85.9774 36.574C87.1565 35.732 88.3517 35.2581 89.5631 35.1521C90.8701 35.0377 91.7962 35.3422 92.3413 36.0654C92.8864 36.7887 93.1952 37.5647 93.2677 38.3935C93.3486 39.318 93.1966 40.1504 92.8116 40.8908C92.4586 41.6284 91.9154 42.0292 91.1822 42.0934C90.6403 42.1408 90.1571 41.9422 89.7328 41.4974C90.1886 41.2006 90.5584 40.6543 90.8422 39.8585C91.1231 39.0309 91.2329 38.2664 91.1715 37.5651C91.1381 37.1825 91.0333 36.9026 90.8571 36.7253C90.7101 36.5133 90.4294 36.4254 90.0149 36.4617C89.1542 36.537 88.2951 36.9976 87.4376 37.8436C86.6119 38.6868 85.8536 39.7489 85.1626 41.03C84.5035 42.3083 83.9775 43.6392 83.5846 45.0227C83.2236 46.4034 83.0947 47.6835 83.1979 48.863C83.2843 49.8513 83.6029 50.7389 84.1536 51.5259C84.7043 52.3129 85.665 52.6464 87.0358 52.5265C88.3109 52.4149 89.5553 51.9527 90.7691 51.1398C92.0148 50.3241 93.1383 49.214 94.1397 47.8094C95.1411 46.4048 95.8998 44.7965 96.4158 42.9846L97.0793 43.4084C96.5134 45.3853 95.6599 47.1945 94.5186 48.8363C93.3746 50.4461 92.0751 51.7483 90.6203 52.7429C89.1654 53.7375 87.657 54.3031 86.0949 54.4398ZM110.562 51.4319C109.669 51.51 108.877 51.2741 108.187 50.7242C107.496 50.1743 106.919 49.4538 106.456 48.5628C106.024 47.669 105.671 46.7523 105.396 45.8127C105.15 44.8384 104.995 43.9847 104.931 43.2515C105.282 43.2208 105.785 43.0965 106.44 42.8785C107.093 42.6287 107.755 42.2978 108.425 41.8858C109.093 41.4419 109.641 40.9121 110.069 40.2964C110.526 39.6461 110.72 38.9225 110.65 38.1256C110.592 37.4561 110.306 36.951 109.795 36.6103C109.283 36.2696 108.709 36.1272 108.071 36.1829C107.083 36.2694 106.189 36.7009 105.39 37.4776C104.587 38.2223 103.885 39.1832 103.281 40.3603C102.706 41.5028 102.202 42.7193 101.769 44.01C101.336 45.3006 100.977 46.5206 100.692 47.6698C100.407 48.819 100.169 49.7713 99.9783 50.5268C99.8373 51.1174 99.5998 51.5236 99.2659 51.7456C98.9347 51.9994 98.5779 52.1431 98.1953 52.1765C97.6534 52.2239 97.2354 52.0357 96.9413 51.6117C96.6791 51.1849 96.4869 50.6396 96.3646 49.9757C96.2713 49.2772 96.1926 48.5613 96.1285 47.8281C95.9835 46.1704 96.0871 44.234 96.4394 42.0189C96.7916 39.8038 97.3123 37.4936 98.0013 35.0884C98.7194 32.6485 99.5241 30.2814 100.416 27.987C101.307 25.6925 102.216 23.6053 103.144 21.7253C104.072 19.8453 104.952 18.3389 105.784 17.206C106.617 16.0732 107.32 15.4816 107.894 15.4314C108.34 15.3924 108.717 15.6645 109.025 16.2479C109.365 16.8285 109.573 17.5492 109.648 18.4099C109.743 19.4937 109.611 20.742 109.253 22.1546C108.892 23.5353 108.325 24.9501 107.552 26.3989C106.811 27.845 105.888 29.2267 104.783 30.5441C103.71 31.8586 102.509 33.0076 101.182 33.991C100.356 36.6652 99.779 39.2533 99.4519 41.7554C99.1538 44.2227 99.0772 46.2852 99.2223 47.9429C99.6208 46.6232 100.104 45.1675 100.671 43.576C101.271 41.9817 101.971 40.4428 102.773 38.9593C103.575 37.4758 104.478 36.2403 105.484 35.2529C106.49 34.2655 107.582 33.7201 108.762 33.617C109.941 33.5138 110.982 33.8403 111.883 34.5966C112.785 35.353 113.287 36.3209 113.39 37.5004C113.479 38.5205 113.285 39.4208 112.807 40.2014C112.359 40.9474 111.771 41.577 111.045 42.0902C110.348 42.5688 109.627 42.9531 108.881 43.2432C108.165 43.4986 107.568 43.6472 107.089 43.6891C107.144 43.9413 107.28 44.3952 107.498 45.0507C107.716 45.7062 108 46.388 108.351 47.096C108.734 47.8014 109.172 48.4055 109.666 48.9083C110.157 49.3793 110.721 49.587 111.359 49.5312C112.283 49.4503 113.129 49.0229 113.897 48.2491C114.664 47.4753 115.364 46.4825 115.997 45.2707C116.659 44.0243 117.245 42.64 117.754 41.1178L118.274 41.5541C117.964 43.1552 117.409 44.6975 116.607 46.181C115.802 47.6327 114.864 48.8391 113.792 49.8002C112.754 50.7904 111.677 51.3343 110.562 51.4319ZM101.827 32.0072C103.19 30.6994 104.348 29.249 105.301 27.6559C106.286 26.06 107.021 24.5502 107.507 23.1264C107.99 21.6708 108.196 20.5445 108.127 19.7475C108.113 19.5882 108.087 19.478 108.05 19.417C108.044 19.3532 108.009 19.3242 107.946 19.3297C107.627 19.3576 107.118 19.9643 106.418 21.1498C105.751 22.3324 105.004 23.8915 104.178 25.8269C103.348 27.7304 102.565 29.7905 101.827 32.0072ZM121.798 50.8343C120.427 50.9542 119.34 50.6478 118.538 49.915C117.735 49.1822 117.265 48.0347 117.128 46.4727C117.005 45.0701 117.11 43.3263 117.441 41.2415C117.802 39.122 118.286 36.9435 118.893 34.7061C118.569 34.6702 118.262 34.6489 117.972 34.6421C117.68 34.6035 117.402 34.5475 117.138 34.4742L117.063 33.6134C117.321 33.623 117.627 33.6284 117.98 33.6296C118.333 33.6308 118.735 33.6278 119.184 33.6206C119.703 31.8407 120.275 30.1202 120.901 28.4594C121.523 26.7667 122.147 25.2666 122.771 23.9592C123.425 22.6171 124.054 21.5502 124.66 20.7585C125.294 19.932 125.85 19.4979 126.328 19.456C126.584 19.4337 126.815 19.5098 127.023 19.6844C127.26 19.8243 127.394 20.0695 127.425 20.4202C127.472 20.9621 127.215 21.884 126.655 23.1858C126.091 24.4557 125.389 25.9787 124.549 27.7547C123.709 29.5307 122.913 31.4474 122.161 33.5047C122.448 33.4796 122.735 33.4545 123.022 33.4294C123.341 33.4015 123.643 33.375 123.93 33.3499C124.982 33.2579 126.081 33.1457 127.226 33.0135C128.402 32.8784 129.575 32.6955 130.743 32.4648L130.818 33.3255C129.082 33.6702 127.516 33.9517 126.122 34.17C124.76 34.3856 123.537 34.5408 122.453 34.6356C122.325 34.6468 122.198 34.6579 122.07 34.6691C121.975 34.6774 121.863 34.6872 121.735 34.6984C121.15 36.452 120.68 38.2438 120.327 40.0736C119.973 41.9034 119.87 43.6631 120.018 45.3526C120.137 46.7234 120.431 47.6935 120.899 48.2629C121.363 48.8005 122.074 49.0274 123.03 48.9437C124.688 48.7987 126.249 47.9233 127.715 46.3174C129.181 44.7116 130.409 42.5965 131.4 39.9721L132.063 40.3959C131.454 42.248 130.623 43.9429 129.569 45.4806C128.547 47.0156 127.371 48.2588 126.041 49.2104C124.711 50.1619 123.296 50.7032 121.798 50.8343ZM133.668 49.844C132.68 49.9304 131.822 49.6682 131.094 49.0573C130.337 48.4811 129.9 47.5236 129.783 46.1847C129.682 45.0371 129.83 43.7875 130.226 42.4358C130.619 41.0523 131.206 39.684 131.987 38.3307C132.765 36.9456 133.666 35.6783 134.689 34.5287C135.742 33.3444 136.862 32.3791 138.05 31.6328C139.269 30.8837 140.501 30.4547 141.744 30.346C142.987 30.2372 144.052 30.4813 144.94 31.0782C145.824 31.6432 146.314 32.4677 146.409 33.5516C146.479 34.3485 146.303 34.91 145.882 35.2359C145.492 35.5591 144.947 35.7513 144.246 35.8127C144.287 35.5521 144.311 35.2769 144.318 34.9873C144.354 34.6629 144.361 34.3732 144.338 34.1182C144.274 33.385 144.045 32.7787 143.649 32.2993C143.251 31.7881 142.622 31.5701 141.761 31.6454C140.868 31.7235 139.988 32.1218 139.119 32.8402C138.248 33.5268 137.428 34.4337 136.659 35.561C135.887 36.6564 135.22 37.8391 134.657 39.109C134.093 40.3789 133.672 41.6204 133.392 42.8333C133.113 44.0463 133.014 45.115 133.095 46.0395C133.203 47.2827 133.688 47.8667 134.549 47.7914C135.282 47.7273 136.05 47.3228 136.852 46.5781C137.651 45.8015 138.451 44.8481 139.252 43.718C140.081 42.5533 140.86 41.3609 141.589 40.1407C142.317 38.9206 142.958 37.8045 143.512 36.7923C143.623 36.5899 143.694 36.4873 143.726 36.4845C143.92 36.4997 144.165 36.5425 144.46 36.613C144.787 36.6808 145.07 36.7846 145.307 36.9245C145.544 37.0643 145.673 37.2618 145.696 37.5168C145.721 37.8037 145.612 38.2147 145.37 38.7499C145.125 39.2532 144.855 39.8389 144.56 40.5072C144.265 41.1754 144.004 41.8568 143.775 42.5513C143.544 43.214 143.454 43.8322 143.504 44.4061C143.546 44.8842 143.715 45.3512 144.012 45.8071C144.306 46.2311 144.74 46.418 145.314 46.3678C146.174 46.2925 147.252 45.5718 148.546 44.2059C149.837 42.808 151.089 40.7872 152.304 38.1433L152.824 38.5796C152.305 40.3596 151.576 41.9491 150.639 43.3482C149.701 44.7472 148.659 45.8663 147.512 46.7055C146.396 47.5419 145.265 48.0103 144.117 48.1107C142.938 48.2139 142.03 47.9399 141.395 47.2888C140.792 46.6349 140.454 45.8935 140.381 45.0647C140.365 44.8734 140.362 44.6648 140.375 44.4389C140.384 44.1811 140.394 43.9233 140.404 43.6654C139.195 45.6343 138.057 47.1312 136.99 48.1561C135.955 49.1781 134.848 49.7408 133.668 49.844ZM155.555 46.9173C154.312 47.0261 153.352 46.7085 152.677 45.9645C152.004 45.2524 151.619 44.3385 151.522 43.2228C151.457 42.4896 151.504 41.5539 151.661 40.4159C151.851 39.2751 152.116 38.0794 152.456 36.829C152.793 35.5467 153.202 34.3385 153.681 33.2045C154.191 32.0676 154.752 31.1352 155.363 30.4072C155.971 29.6473 156.594 29.2395 157.232 29.1837C157.519 29.1586 157.766 29.2333 157.974 29.4078C158.211 29.5477 158.345 29.793 158.376 30.1436C158.409 30.5262 158.209 31.1701 157.774 32.0754C157.371 32.978 156.884 34.0164 156.312 35.1907C155.74 36.365 155.253 37.5961 154.852 38.884C154.48 40.1372 154.343 41.3217 154.44 42.4374C154.541 43.585 154.799 44.3334 155.215 44.6824C155.631 45.0315 156.237 45.1712 157.034 45.1015C158.118 45.0066 159.218 44.3643 160.335 43.1745C161.483 41.9818 162.624 39.9707 163.758 37.1411L164.23 37.5817C163.546 40.4041 162.391 42.6252 160.766 44.245C159.173 45.862 157.436 46.7527 155.555 46.9173ZM159.377 24.5149C158.867 24.5596 158.393 24.4725 157.957 24.2537C157.552 24.0322 157.326 23.6504 157.278 23.1085C157.22 22.439 157.552 21.8318 158.275 21.2867C159.028 20.7069 159.786 20.3835 160.551 20.3166C161.03 20.2748 161.422 20.3529 161.728 20.5509C162.035 20.749 162.212 21.1189 162.259 21.6609C162.312 22.2666 162.029 22.8856 161.41 23.518C160.82 24.1157 160.142 24.448 159.377 24.5149ZM167.632 46.0535C166.261 46.1734 165.231 45.7817 164.541 44.8783C163.887 44.004 163.498 42.8656 163.375 41.4629C163.241 39.9328 163.369 38.0906 163.759 35.9365C164.149 33.7823 164.704 31.5012 165.425 29.0932C166.178 26.6824 167.016 24.3285 167.939 22.0312C168.86 19.7021 169.798 17.5803 170.755 15.6656C171.712 13.7509 172.605 12.2112 173.435 11.0465C174.296 9.87894 174.998 9.27147 175.54 9.22406C175.891 9.19338 176.196 9.37549 176.455 9.77038C176.712 10.1334 176.929 10.5962 177.106 11.1589C177.281 11.6897 177.388 12.1782 177.427 12.6245C177.503 13.4852 177.379 14.6364 177.055 16.0781C176.76 17.4851 176.29 19.0842 175.644 20.8753C175.026 22.6318 174.253 24.4341 173.322 26.2823C172.421 28.0957 171.402 29.8552 170.267 31.5607C169.163 33.2633 167.96 34.7498 166.657 36.0202C166.542 36.8976 166.456 37.7563 166.401 38.5963C166.375 39.4017 166.394 40.1709 166.458 40.9041C166.567 42.1474 166.823 43.0565 167.227 43.6315C167.631 44.2065 168.183 44.4633 168.884 44.402C169.745 44.3267 170.557 43.8702 171.318 43.0326C172.112 42.1923 172.825 41.1662 173.458 39.9544C174.12 38.708 174.668 37.4394 175.101 36.1488L175.852 36.4686C174.813 39.2898 173.615 41.5629 172.256 43.2879C170.895 44.981 169.353 45.9028 167.632 46.0535ZM166.946 34.3567C167.964 33.1434 168.936 31.7734 169.863 30.2469C170.786 28.6884 171.626 27.0892 172.382 25.449C173.17 23.8061 173.85 22.2208 174.423 20.693C174.996 19.1653 175.424 17.8108 175.706 16.6298C175.985 15.4168 176.097 14.4915 176.041 13.854C176.013 13.5352 175.947 13.3322 175.843 13.2449C175.771 13.1548 175.703 13.1126 175.64 13.1182C175.385 13.1405 174.975 13.594 174.41 14.4786C173.874 15.3285 173.251 16.4751 172.542 17.9184C171.833 19.3617 171.125 20.9976 170.418 22.8262C169.711 24.6548 169.042 26.5603 168.412 28.5428C167.815 30.5224 167.326 32.4604 166.946 34.3567Z" fill="#7FFFD4"/>
</g>
<g filter="url(#filter1_i_11_26)">
<path d="M254.694 23.1482C254.628 23.0473 254.558 22.962 254.489 22.8748C253.648 21.7878 252.556 20.952 251.308 20.4405L251.295 20.4349C249.931 19.8728 248.432 19.7081 246.945 19.9571C245.457 20.206 244.034 20.8599 242.817 21.8541L242.779 21.8863C241.79 22.6998 240.97 23.7254 240.377 24.8893L240.363 24.92L224.057 18.1658L224.214 12.6269C224.253 11.3745 223.87 10.1749 223.134 9.24358C222.398 8.31225 221.357 7.71015 220.198 7.54539L220.231 7.55066L214.153 6.63043L213.816 8.4088L219.895 9.32903C220.651 9.4431 221.329 9.83948 221.81 10.4484C222.291 11.0574 222.543 11.8399 222.523 12.6582L222.521 12.6832L222.39 17.4775L212.035 13.1886L221.548 39.1923L215.837 52.9808C211.688 51.6259 208.314 51.9255 207.569 53.7232L207.431 54.0576L224.117 60.9693L224.256 60.6349C225 58.8391 222.824 56.2322 218.935 54.2641L224.646 40.4756L240.126 33.2877C240.333 33.7349 240.588 34.176 240.878 34.5905L240.906 34.6282C242.234 36.4716 244.228 37.638 246.452 37.8726C248.676 38.1073 250.95 37.391 252.776 35.8804C254.603 34.3698 255.834 32.1876 256.201 29.8106C256.567 27.4336 256.039 25.0549 254.732 23.1944L254.704 23.1568L254.694 23.1482ZM253.707 30.3305L249.465 28.5887L253.226 25.4711C253.977 26.9138 254.153 28.6434 253.717 30.2958L253.707 30.3305ZM252.242 24.0763L248.476 27.205L247.994 22.3449C248.801 22.3216 249.596 22.4681 250.331 22.776C251.083 23.0877 251.736 23.5442 252.273 24.1065L252.242 24.0763ZM244.166 23.8242C244.826 23.2773 245.542 22.8835 246.298 22.6401L246.314 22.6358L246.796 27.4959L242.565 25.7584C243.003 24.9683 243.555 24.318 244.192 23.8002L244.166 23.8223L244.166 23.8242ZM216.259 17.6784L222.308 20.1838L222.231 22.7216L217.368 20.7073L216.259 17.6784ZM240.648 30.3521L239.267 29.7801L239.262 29.7912L223.885 23.4219L223.962 20.8841L243.552 28.9989L240.648 30.3521ZM243.336 33.6865L247.102 30.5578L247.584 35.4179C246.829 35.4473 246.022 35.312 245.249 34.9919C244.495 34.6795 243.841 34.2204 243.306 33.6544L243.337 33.6847L243.336 33.6865ZM251.407 33.9516C250.767 34.484 250.044 34.8863 249.277 35.1363L249.261 35.1406L248.779 30.2805L253.009 32.0198C252.584 32.7689 252.032 33.4323 251.382 33.9736L251.41 33.9504L251.407 33.9516Z" fill="#7FFFD4"/>
</g>
<defs>
<filter id="filter0_i_11_26" x="0.00985336" y="9.086" width="180.484" height="58.0835" filterUnits="userSpaceOnUse" color-interpolation-filters="sRGB">
<feFlood flood-opacity="0" result="BackgroundImageFix"/>
<feBlend mode="normal" in="SourceGraphic" in2="BackgroundImageFix" result="shape"/>
<feColorMatrix in="SourceAlpha" type="matrix" values="0 0 0 0 0 0 0 0 0 0 0 0 0 0 0 0 0 0 127 0" result="hardAlpha"/>
<feOffset dy="4"/>
<feGaussianBlur stdDeviation="2"/>
<feComposite in2="hardAlpha" operator="arithmetic" k2="-1" k3="1"/>
<feColorMatrix type="matrix" values="0 0 0 0 1 0 0 0 0 0.956863 0 0 0 0 0.941176 0 0 0 1 0"/>
<feBlend mode="normal" in2="shape" result="effect1_innerShadow_11_26"/>
</filter>
<filter id="filter1_i_11_26" x="207.431" y="6.63043" width="48.8835" height="58.3389" filterUnits="userSpaceOnUse" color-interpolation-filters="sRGB">
<feFlood flood-opacity="0" result="BackgroundImageFix"/>
<feBlend mode="normal" in="SourceGraphic" in2="BackgroundImageFix" result="shape"/>
<feColorMatrix in="SourceAlpha" type="matrix" values="0 0 0 0 0 0 0 0 0 0 0 0 0 0 0 0 0 0 127 0" result="hardAlpha"/>
<feOffset dy="4"/>
<feGaussianBlur stdDeviation="2"/>
<feComposite in2="hardAlpha" operator="arithmetic" k2="-1" k3="1"/>
<feColorMatrix type="matrix" values="0 0 0 0 1 0 0 0 0 0.956863 0 0 0 0 0.941176 0 0 0 1 0"/>
<feBlend mode="normal" in2="shape" result="effect1_innerShadow_11_26"/>
</filter>
</defs>
</svg>
