<svg width="49" height="55" viewBox="0 0 49 55" fill="none" xmlns="http://www.w3.org/2000/svg">
<g filter="url(#filter0_i_11_28)">
<path d="M47.2934 16.6482C47.2277 16.5473 47.1576 16.462 47.0882 16.3748C46.247 15.2878 45.155 14.452 43.9077 13.9405L43.8941 13.9349C42.5308 13.3728 41.0312 13.2081 39.5441 13.4571C38.057 13.706 36.6339 14.3599 35.4161 15.3541L35.3789 15.3863C34.3894 16.1998 33.5692 17.2254 32.9768 18.3893L32.9621 18.42L16.6562 11.6658L16.8133 6.12685C16.8523 4.87445 16.4693 3.6749 15.7332 2.74358C14.9971 1.81225 13.9561 1.21015 12.797 1.04539L12.8307 1.05066L6.75245 0.130434L6.41581 1.9088L12.494 2.82903C13.2504 2.9431 13.9286 3.33948 14.4094 3.94842C14.8903 4.55737 15.1429 5.33986 15.1228 6.15824L15.1204 6.18322L14.9892 10.9775L4.63493 6.68863L14.1475 32.6923L8.43608 46.4808C4.28709 45.1259 0.913394 45.4255 0.168765 47.2232L0.0302457 47.5576L16.7166 54.4693L16.8552 54.1349C17.599 52.3391 15.4233 49.7322 11.5342 47.7641L17.2456 33.9756L32.7258 26.7877C32.9326 27.2349 33.1877 27.676 33.4776 28.0905L33.5058 28.1282C34.8334 29.9716 36.827 31.138 39.0512 31.3726C41.2753 31.6073 43.5491 30.8911 45.3758 29.3804C47.2025 27.8698 48.4336 25.6876 48.8001 23.3106C49.1666 20.9336 48.6388 18.5549 47.332 16.6944L47.3038 16.6568L47.2934 16.6482ZM46.3064 23.8305L42.0649 22.0887L45.8258 18.9711C46.5768 20.4138 46.7528 22.1434 46.3167 23.7958L46.3064 23.8305ZM44.8414 17.5763L41.0759 20.705L40.5936 15.8449C41.4009 15.8216 42.1951 15.9681 42.9304 16.276C43.6828 16.5877 44.3355 17.0442 44.8727 17.6065L44.8414 17.5763ZM36.7651 17.3242C37.4255 16.7773 38.1418 16.3835 38.8973 16.1401L38.913 16.1358L39.3953 20.9959L35.164 19.2584C35.6027 18.4683 36.1546 17.818 36.791 17.3002L36.7659 17.3223L36.7651 17.3242ZM8.85849 11.1784L14.907 13.6838L14.8308 16.2216L9.96794 14.2073L8.85849 11.1784ZM33.2473 23.8521L31.8664 23.2801L31.8618 23.2912L16.485 16.9219L16.5611 14.3841L36.152 22.4989L33.2473 23.8521ZM35.9356 27.1865L39.7011 24.0578L40.1834 28.9179C39.4289 28.9473 38.6213 28.812 37.8485 28.4919C37.0943 28.1795 36.4407 27.7204 35.9051 27.1544L35.9363 27.1847L35.9356 27.1865ZM44.0065 27.4516C43.3668 27.984 42.6434 28.3863 41.8761 28.6363L41.8603 28.6406L41.378 23.7805L45.6086 25.5198C45.1837 26.2689 44.6312 26.9323 43.9814 27.4736L44.009 27.4504L44.0065 27.4516Z" fill="#7FFFD4"/>
</g>
<defs>
<filter id="filter0_i_11_28" x="0.0302429" y="0.130434" width="48.8835" height="58.3389" filterUnits="userSpaceOnUse" color-interpolation-filters="sRGB">
<feFlood flood-opacity="0" result="BackgroundImageFix"/>
<feBlend mode="normal" in="SourceGraphic" in2="BackgroundImageFix" result="shape"/>
<feColorMatrix in="SourceAlpha" type="matrix" values="0 0 0 0 0 0 0 0 0 0 0 0 0 0 0 0 0 0 127 0" result="hardAlpha"/>
<feOffset dy="4"/>
<feGaussianBlur stdDeviation="2"/>
<feComposite in2="hardAlpha" operator="arithmetic" k2="-1" k3="1"/>
<feColorMatrix type="matrix" values="0 0 0 0 1 0 0 0 0 0.956863 0 0 0 0 0.941176 0 0 0 1 0"/>
<feBlend mode="normal" in2="shape" result="effect1_innerShadow_11_28"/>
</filter>
</defs>
</svg>
