<svg width="230" height="38" viewBox="0 0 230 38" fill="none" xmlns="http://www.w3.org/2000/svg">
<g style="mix-blend-mode:screen" filter="url(#filter0_i_11_95)">
<path d="M0.203125 37.5V34.5469L4.02344 33.8906L4.02344 7.00782L0.203125 6.35157V3.375H4.02344H10.1875L21.1797 29.2734H21.3203L31.9609 3.375H42.25V6.35157L38.4297 7.00782V33.8906L42.25 34.5469V37.5H29.9922V34.5469L34.0234 33.8906V24V9.67969L33.9062 9.65625L22.8203 36.2813H19.75L8.28906 9.70313L8.17187 9.72656L8.33594 24V33.8906L12.4609 34.5469V37.5H0.203125ZM61.7734 37.9922C58.3516 37.9922 55.4922 37.2422 53.1953 35.7422C50.9141 34.2422 49.1953 32.1875 48.0391 29.5781C46.8984 26.9688 46.3281 24.0078 46.3281 20.6953V20.2031C46.3281 16.8594 46.9297 13.8906 48.1328 11.2969C49.3359 8.6875 51.0625 6.63282 53.3125 5.13282C55.5625 3.63282 58.25 2.88282 61.375 2.88282C63.5781 2.88282 65.5937 3.22657 67.4219 3.91407C69.25 4.60157 70.7656 5.47657 71.9687 6.53907V13.8984H68.2891L67.7969 8.50782C67.2969 8.11719 66.7187 7.78907 66.0625 7.52344C65.4219 7.25782 64.7031 7.05469 63.9062 6.91407C63.125 6.77344 62.2734 6.70313 61.3516 6.70313C59.1172 6.70313 57.2266 7.28125 55.6797 8.4375C54.1328 9.57813 52.9609 11.1563 52.1641 13.1719C51.3672 15.1875 50.9687 17.5156 50.9687 20.1563V20.6953C50.9687 23.5547 51.3906 26 52.2344 28.0313C53.0937 30.0469 54.3359 31.5859 55.9609 32.6484C57.6016 33.7109 59.5937 34.2422 61.9375 34.2422C63.0312 34.2422 64.1016 34.1094 65.1484 33.8438C66.1953 33.5781 67.0625 33.2344 67.75 32.8125L68.2656 28.0547H71.875V35.4609C70.5937 36.2578 69.0625 36.8828 67.2812 37.3359C65.5 37.7734 63.6641 37.9922 61.7734 37.9922ZM87.8828 37.9922C85.5391 37.9922 83.5156 37.4453 81.8125 36.3516C80.125 35.2422 78.8203 33.7188 77.8984 31.7813C76.9766 29.8281 76.5156 27.6016 76.5156 25.1016V24.5859C76.5156 22.0859 76.9766 19.8672 77.8984 17.9297C78.8203 15.9766 80.125 14.4453 81.8125 13.3359C83.5156 12.2266 85.5234 11.6719 87.8359 11.6719C90.1797 11.6719 92.1953 12.2266 93.8828 13.3359C95.5859 14.4453 96.8984 15.9688 97.8203 17.9063C98.7422 19.8438 99.2031 22.0703 99.2031 24.5859V25.1016C99.2031 27.6172 98.7422 29.8516 97.8203 31.8047C96.8984 33.7422 95.5937 35.2578 93.9062 36.3516C92.2187 37.4453 90.2109 37.9922 87.8828 37.9922ZM87.8828 34.3828C89.3516 34.3828 90.5781 33.9844 91.5625 33.1875C92.5625 32.375 93.3125 31.2734 93.8125 29.8828C94.3281 28.4766 94.5859 26.8828 94.5859 25.1016V24.5859C94.5859 22.8047 94.3281 21.2188 93.8125 19.8281C93.3125 18.4219 92.5625 17.3203 91.5625 16.5234C90.5625 15.7109 89.3203 15.3047 87.8359 15.3047C86.3672 15.3047 85.1328 15.7109 84.1328 16.5234C83.1328 17.3203 82.3828 18.4219 81.8828 19.8281C81.3828 21.2188 81.1328 22.8047 81.1328 24.5859V25.1016C81.1328 26.8828 81.3828 28.4766 81.8828 29.8828C82.3828 31.2734 83.1328 32.375 84.1328 33.1875C85.1484 33.9844 86.3984 34.3828 87.8828 34.3828ZM115.07 37.9922C112.773 37.9922 110.773 37.4609 109.07 36.3984C107.367 35.3203 106.047 33.8281 105.109 31.9219C104.172 30.0156 103.703 27.8125 103.703 25.3125V24.3281C103.703 21.9219 104.156 19.7656 105.062 17.8594C105.969 15.9531 107.273 14.4453 108.977 13.3359C110.68 12.2266 112.711 11.6719 115.07 11.6719C117.117 11.6719 118.906 12.0078 120.437 12.6797C121.984 13.3516 123.281 14.2734 124.328 15.4453L124.445 21.5391H120.836L120.039 17.1094C119.508 16.5625 118.844 16.125 118.047 15.7969C117.25 15.4688 116.312 15.3047 115.234 15.3047C113.859 15.3047 112.648 15.7109 111.602 16.5234C110.57 17.3359 109.766 18.4219 109.187 19.7813C108.609 21.1406 108.32 22.6563 108.32 24.3281V25.3125C108.32 27.1563 108.586 28.7578 109.117 30.1172C109.664 31.4766 110.437 32.5313 111.437 33.2813C112.453 34.0156 113.656 34.3828 115.047 34.3828C116.609 34.3828 117.906 33.9531 118.937 33.0938C119.969 32.2344 120.602 31.0547 120.836 29.5547H124.984L125.031 29.6953C124.953 31.1484 124.523 32.5078 123.742 33.7734C122.961 35.0391 121.844 36.0625 120.391 36.8438C118.953 37.6094 117.18 37.9922 115.07 37.9922ZM128.406 37.5V34.5469L132.227 33.8906V4.57032L128.406 3.91407V0.937503H136.844V33.8906L140.664 34.5469V37.5H128.406ZM144.695 37.5V34.5469L147.273 34.2422L147.203 34.1484L139.867 24.6797L142.258 21L152.5 33.9844L156.156 34.5469V37.5H144.695ZM136.516 30.1641L134.805 26.5313L145.82 15.5625L145.937 15.4219L143.219 15.1172V12.1406H154.141V15.1172L150.883 15.7266L136.516 30.1641ZM167.781 37.8984C165.906 37.8984 164.414 37.3516 163.305 36.2578C162.211 35.1484 161.664 33.3828 161.664 30.9609V15.5625H157.656V12.1406H161.664V6.02344H166.281V12.1406H171.789V15.5625H166.281V30.9609C166.281 32.1797 166.523 33.0781 167.008 33.6563C167.492 34.2344 168.141 34.5234 168.953 34.5234C169.5 34.5234 170.109 34.4766 170.781 34.3828C171.453 34.2734 171.977 34.1797 172.352 34.1016L172.984 37.125C172.312 37.3281 171.484 37.5078 170.5 37.6641C169.531 37.8203 168.625 37.8984 167.781 37.8984ZM184.141 37.9922C181.5 37.9922 179.492 37.3516 178.117 36.0703C176.742 34.7734 176.055 32.9531 176.055 30.6094C176.055 29 176.492 27.6016 177.367 26.4141C178.258 25.2109 179.539 24.2813 181.211 23.625C182.883 22.9531 184.883 22.6172 187.211 22.6172H191.734V20.1328C191.734 18.6016 191.266 17.4141 190.328 16.5703C189.406 15.7266 188.102 15.3047 186.414 15.3047C185.352 15.3047 184.43 15.4375 183.648 15.7031C182.867 15.9531 182.156 16.3047 181.516 16.7578L181.023 20.2969H177.461V14.4844C178.602 13.5625 179.93 12.8672 181.445 12.3984C182.961 11.9141 184.641 11.6719 186.484 11.6719C189.562 11.6719 191.977 12.4063 193.727 13.875C195.477 15.3438 196.352 17.4453 196.352 20.1797V32.3906C196.352 32.7188 196.352 33.0391 196.352 33.3516C196.367 33.6641 196.391 33.9766 196.422 34.2891L198.883 34.5469V37.5H192.25C192.109 36.8125 192 36.1953 191.922 35.6484C191.844 35.1016 191.789 34.5547 191.758 34.0078C190.867 35.1484 189.75 36.1016 188.406 36.8672C187.078 37.6172 185.656 37.9922 184.141 37.9922ZM184.82 34.125C186.352 34.125 187.75 33.7578 189.016 33.0234C190.281 32.2891 191.187 31.4063 191.734 30.375V25.7813H187.047C184.922 25.7813 183.328 26.2891 182.266 27.3047C181.203 28.3203 180.672 29.4531 180.672 30.7031C180.672 31.8125 181.016 32.6641 181.703 33.2578C182.391 33.8359 183.43 34.125 184.82 34.125ZM202.305 37.5V34.5469L206.125 33.8906V15.7734L202.305 15.1172V12.1406H210.742V33.8906L214.562 34.5469V37.5H202.305ZM205.891 5.88282V0.937503H210.742V5.88282H205.891ZM217.516 37.5V34.5469L221.336 33.8906V4.57032L217.516 3.91407V0.937503H225.953V33.8906L229.773 34.5469V37.5H217.516Z" fill="#028D71"/>
</g>
<defs>
<filter id="filter0_i_11_95" x="0.203125" y="0.937504" width="229.57" height="41.0547" filterUnits="userSpaceOnUse" color-interpolation-filters="sRGB">
<feFlood flood-opacity="0" result="BackgroundImageFix"/>
<feBlend mode="normal" in="SourceGraphic" in2="BackgroundImageFix" result="shape"/>
<feColorMatrix in="SourceAlpha" type="matrix" values="0 0 0 0 0 0 0 0 0 0 0 0 0 0 0 0 0 0 127 0" result="hardAlpha"/>
<feOffset dy="4"/>
<feGaussianBlur stdDeviation="2"/>
<feComposite in2="hardAlpha" operator="arithmetic" k2="-1" k3="1"/>
<feColorMatrix type="matrix" values="0 0 0 0 0.921569 0 0 0 0 1 0 0 0 0 0.984314 0 0 0 1 0"/>
<feBlend mode="normal" in2="shape" result="effect1_innerShadow_11_95"/>
</filter>
</defs>
</svg>
